{
    "asset": {
        "version": "2.0",
        "generator": "Open Asset Import Library (assimp v5.0.5eb040c7)"
    },
    "accessors": [
        {
            "bufferView": 0,
            "byteOffset": 0,
            "componentType": 5126,
            "count": 8,
            "type": "VEC3",
            "max": [
                7.334266185760498,
                0.021714000031352044,
                -1.197587013244629
            ],
            "min": [
                -1.6926159858703614,
                -0.021714000031352044,
                -1.2410169839859009
            ]
        },
        {
            "bufferView": 1,
            "byteOffset": 0,
            "componentType": 5126,
            "count": 8,
            "type": "VEC3",
            "max": [
                -0.0,
                -0.0,
                -0.0
            ],
            "min": [
                -0.0,
                -1.0,
                -1.0
            ]
        },
        {
            "bufferView": 2,
            "byteOffset": 0,
            "componentType": 5126,
            "count": 8,
            "type": "VEC2",
            "max": [
                1.0,
                1.0
            ],
            "min": [
                0.0,
                0.0
            ]
        },
        {
            "bufferView": 3,
            "byteOffset": 0,
            "componentType": 5125,
            "count": 12,
            "type": "SCALAR",
            "max": [
                7
            ],
            "min": [
                0
            ]
        },
        {
            "bufferView": 4,
            "byteOffset": 0,
            "componentType": 5126,
            "count": 62,
            "type": "VEC3",
            "max": [
                -0.3095790147781372,
                0.39483100175857546,
                0.07410699874162674
            ],
            "min": [
                -0.922989010810852,
                -0.6110110282897949,
                -0.07410699874162674
            ]
        },
        {
            "bufferView": 5,
            "byteOffset": 0,
            "componentType": 5126,
            "count": 62,
            "type": "VEC3",
            "max": [
                0.9524030089378357,
                0.9845693707466126,
                0.8765165209770203
            ],
            "min": [
                -0.9530752301216126,
                -0.9845693707466126,
                -0.8716281056404114
            ]
        },
        {
            "bufferView": 6,
            "byteOffset": 0,
            "componentType": 5126,
            "count": 62,
            "type": "VEC2",
            "max": [
                0.9945999979972839,
                0.9606000185012817
            ],
            "min": [
                0.2540999948978424,
                0.41519999504089358
            ]
        },
        {
            "bufferView": 7,
            "byteOffset": 0,
            "componentType": 5125,
            "count": 168,
            "type": "SCALAR",
            "max": [
                61
            ],
            "min": [
                0
            ]
        },
        {
            "bufferView": 8,
            "byteOffset": 0,
            "componentType": 5126,
            "count": 12,
            "type": "VEC3",
            "max": [
                0.11436399817466736,
                0.02196500077843666,
                -0.9875149726867676
            ],
            "min": [
                -0.07643300294876099,
                -0.02196500077843666,
                -1.031445026397705
            ]
        },
        {
            "bufferView": 9,
            "byteOffset": 0,
            "componentType": 5126,
            "count": 12,
            "type": "VEC3",
            "max": [
                0.7966712117195129,
                0.6815499663352966,
                0.6815499663352966
            ],
            "min": [
                -0.5773502588272095,
                -0.6815499663352966,
                -0.6815499663352966
            ]
        },
        {
            "bufferView": 10,
            "byteOffset": 0,
            "componentType": 5125,
            "count": 60,
            "type": "SCALAR",
            "max": [
                11
            ],
            "min": [
                0
            ]
        },
        {
            "bufferView": 11,
            "byteOffset": 0,
            "componentType": 5126,
            "count": 11857,
            "type": "VEC3",
            "max": [
                0.8741850256919861,
                0.5667499899864197,
                0.12390200048685074
            ],
            "min": [
                -0.9760249853134155,
                -0.5238860249519348,
                -0.12610800564289094
            ]
        },
        {
            "bufferView": 12,
            "byteOffset": 0,
            "componentType": 5126,
            "count": 11857,
            "type": "VEC3",
            "max": [
                1.0,
                1.0,
                1.0
            ],
            "min": [
                -1.0,
                -1.0,
                -1.0
            ]
        },
        {
            "bufferView": 13,
            "byteOffset": 0,
            "componentType": 5126,
            "count": 11857,
            "type": "VEC2",
            "max": [
                0.9977999925613403,
                0.9959999918937683
            ],
            "min": [
                0.001500000013038516,
                0.005299985408782959
            ]
        },
        {
            "bufferView": 14,
            "byteOffset": 0,
            "componentType": 5125,
            "count": 59160,
            "type": "SCALAR",
            "max": [
                11856
            ],
            "min": [
                0
            ]
        },
        {
            "bufferView": 15,
            "byteOffset": 0,
            "componentType": 5126,
            "count": 3,
            "type": "VEC3",
            "max": [
                -0.43249499797821047,
                0.5482040047645569,
                0.0
            ],
            "min": [
                -0.43249499797821047,
                0.5111119747161865,
                0.0
            ]
        },
        {
            "bufferView": 16,
            "byteOffset": 0,
            "componentType": 5126,
            "count": 3,
            "type": "VEC3",
            "max": [
                -1.7976931348623157e308,
                -1.7976931348623157e308,
                -1.7976931348623157e308
            ],
            "min": [
                1.7976931348623157e308,
                1.7976931348623157e308,
                1.7976931348623157e308
            ]
        },
        {
            "bufferView": 17,
            "byteOffset": 0,
            "componentType": 5126,
            "count": 3,
            "type": "VEC2",
            "max": [
                0.0,
                1.0
            ],
            "min": [
                0.0,
                1.0
            ]
        },
        {
            "bufferView": 18,
            "byteOffset": 0,
            "componentType": 5125,
            "count": 4,
            "type": "SCALAR",
            "max": [
                2
            ],
            "min": [
                0
            ]
        },
        {
            "bufferView": 19,
            "byteOffset": 0,
            "componentType": 5126,
            "count": 1674,
            "type": "VEC3",
            "max": [
                0.8523499965667725,
                0.6452509760856628,
                0.1015309989452362
            ],
            "min": [
                -0.7644929885864258,
                0.277554988861084,
                -0.1015309989452362
            ]
        },
        {
            "bufferView": 20,
            "byteOffset": 0,
            "componentType": 5126,
            "count": 1674,
            "type": "VEC3",
            "max": [
                1.0,
                1.0,
                1.0
            ],
            "min": [
                -1.0,
                -1.0,
                -1.0
            ]
        },
        {
            "bufferView": 21,
            "byteOffset": 0,
            "componentType": 5126,
            "count": 1674,
            "type": "VEC2",
            "max": [
                0.9957000017166138,
                0.9886000156402588
            ],
            "min": [
                0.02759999968111515,
                0.13109999895095826
            ]
        },
        {
            "bufferView": 22,
            "byteOffset": 0,
            "componentType": 5125,
            "count": 5610,
            "type": "SCALAR",
            "max": [
                1673
            ],
            "min": [
                0
            ]
        },
        {
            "bufferView": 23,
            "byteOffset": 0,
            "componentType": 5126,
            "count": 13,
            "type": "VEC3",
            "max": [
                1.8424609899520875,
                0.9321839809417725,
                0.9777519702911377
            ],
            "min": [
                0.7950419783592224,
                0.07545799762010575,
                -0.9777519702911377
            ]
        },
        {
            "bufferView": 24,
            "byteOffset": 0,
            "componentType": 5126,
            "count": 13,
            "type": "VEC3",
            "max": [
                0.9999948740005493,
                1.0,
                1.0
            ],
            "min": [
                0.0,
                -0.9547483325004578,
                -0.6788226366043091
            ]
        },
        {
            "bufferView": 25,
            "byteOffset": 0,
            "componentType": 5126,
            "count": 13,
            "type": "VEC2",
            "max": [
                1.0297000408172608,
                1.0
            ],
            "min": [
                -0.05739999935030937,
                0.0
            ]
        },
        {
            "bufferView": 26,
            "byteOffset": 0,
            "componentType": 5125,
            "count": 24,
            "type": "SCALAR",
            "max": [
                12
            ],
            "min": [
                0
            ]
        },
        {
            "bufferView": 27,
            "byteOffset": 0,
            "componentType": 5126,
            "count": 134,
            "type": "VEC3",
            "max": [
                -0.1201540008187294,
                0.2607499957084656,
                0.014872999861836434
            ],
            "min": [
                -0.280580997467041,
                0.04205799847841263,
                -0.016169000416994096
            ]
        },
        {
            "bufferView": 28,
            "byteOffset": 0,
            "componentType": 5126,
            "count": 134,
            "type": "VEC3",
            "max": [
                0.9986821413040161,
                0.9930134415626526,
                1.0
            ],
            "min": [
                -0.9887011647224426,
                -0.9930134415626526,
                -1.0
            ]
        },
        {
            "bufferView": 29,
            "byteOffset": 0,
            "componentType": 5126,
            "count": 134,
            "type": "VEC2",
            "max": [
                0.9941999912261963,
                0.7020000219345093
            ],
            "min": [
                0.46059998869895937,
                0.18379998207092286
            ]
        },
        {
            "bufferView": 30,
            "byteOffset": 0,
            "componentType": 5125,
            "count": 456,
            "type": "SCALAR",
            "max": [
                133
            ],
            "min": [
                0
            ]
        }
    ],
    "buffers": [
        {
            "byteLength": 702296,
            "uri": "result.bin"
        }
    ],
    "bufferViews": [
        {
            "buffer": 0,
            "byteOffset": 0,
            "byteLength": 96,
            "target": 34962
        },
        {
            "buffer": 0,
            "byteOffset": 96,
            "byteLength": 96,
            "target": 34962
        },
        {
            "buffer": 0,
            "byteOffset": 192,
            "byteLength": 64,
            "target": 34962
        },
        {
            "buffer": 0,
            "byteOffset": 256,
            "byteLength": 48,
            "target": 34963
        },
        {
            "buffer": 0,
            "byteOffset": 304,
            "byteLength": 744,
            "target": 34962
        },
        {
            "buffer": 0,
            "byteOffset": 1048,
            "byteLength": 744,
            "target": 34962
        },
        {
            "buffer": 0,
            "byteOffset": 1792,
            "byteLength": 496,
            "target": 34962
        },
        {
            "buffer": 0,
            "byteOffset": 2288,
            "byteLength": 672,
            "target": 34963
        },
        {
            "buffer": 0,
            "byteOffset": 2960,
            "byteLength": 144,
            "target": 34962
        },
        {
            "buffer": 0,
            "byteOffset": 3104,
            "byteLength": 144,
            "target": 34962
        },
        {
            "buffer": 0,
            "byteOffset": 3248,
            "byteLength": 240,
            "target": 34963
        },
        {
            "buffer": 0,
            "byteOffset": 3488,
            "byteLength": 142284,
            "target": 34962
        },
        {
            "buffer": 0,
            "byteOffset": 145772,
            "byteLength": 142284,
            "target": 34962
        },
        {
            "buffer": 0,
            "byteOffset": 288056,
            "byteLength": 94856,
            "target": 34962
        },
        {
            "buffer": 0,
            "byteOffset": 382912,
            "byteLength": 236640,
            "target": 34963
        },
        {
            "buffer": 0,
            "byteOffset": 619552,
            "byteLength": 36,
            "target": 34962
        },
        {
            "buffer": 0,
            "byteOffset": 619588,
            "byteLength": 36,
            "target": 34962
        },
        {
            "buffer": 0,
            "byteOffset": 619624,
            "byteLength": 24,
            "target": 34962
        },
        {
            "buffer": 0,
            "byteOffset": 619648,
            "byteLength": 16,
            "target": 34963
        },
        {
            "buffer": 0,
            "byteOffset": 619664,
            "byteLength": 20088,
            "target": 34962
        },
        {
            "buffer": 0,
            "byteOffset": 639752,
            "byteLength": 20088,
            "target": 34962
        },
        {
            "buffer": 0,
            "byteOffset": 659840,
            "byteLength": 13392,
            "target": 34962
        },
        {
            "buffer": 0,
            "byteOffset": 673232,
            "byteLength": 22440,
            "target": 34963
        },
        {
            "buffer": 0,
            "byteOffset": 695672,
            "byteLength": 156,
            "target": 34962
        },
        {
            "buffer": 0,
            "byteOffset": 695828,
            "byteLength": 156,
            "target": 34962
        },
        {
            "buffer": 0,
            "byteOffset": 695984,
            "byteLength": 104,
            "target": 34962
        },
        {
            "buffer": 0,
            "byteOffset": 696088,
            "byteLength": 96,
            "target": 34963
        },
        {
            "buffer": 0,
            "byteOffset": 696184,
            "byteLength": 1608,
            "target": 34962
        },
        {
            "buffer": 0,
            "byteOffset": 697792,
            "byteLength": 1608,
            "target": 34962
        },
        {
            "buffer": 0,
            "byteOffset": 699400,
            "byteLength": 1072,
            "target": 34962
        },
        {
            "buffer": 0,
            "byteOffset": 700472,
            "byteLength": 1824,
            "target": 34963
        }
    ],
    "materials": [
        {
            "name": "DefaultMaterial",
            "pbrMetallicRoughness": {
                "baseColorFactor": [
                    0.6000000238418579,
                    0.6000000238418579,
                    0.6000000238418579,
                    1.0
                ],
                "metallicFactor": 0.0
            }
        },
        {
            "name": "Material.001",
            "pbrMetallicRoughness": {
                "baseColorFactor": [
                    0.6000000238418579,
                    0.6000000238418579,
                    0.6000000238418579,
                    1.0
                ],
                "metallicFactor": 0.0
            }
        },
        {
            "name": "handgun",
            "pbrMetallicRoughness": {
                "baseColorFactor": [
                    0.6000000238418579,
                    0.6000000238418579,
                    0.6000000238418579,
                    1.0
                ],
                "metallicFactor": 0.0
            }
        },
        {
            "name": "Material.004",
            "pbrMetallicRoughness": {
                "baseColorFactor": [
                    0.6000000238418579,
                    0.6000000238418579,
                    0.6000000238418579,
                    1.0
                ],
                "metallicFactor": 0.0
            }
        },
        {
            "name": "handgun_handgun_C.jpg",
            "pbrMetallicRoughness": {
                "baseColorFactor": [
                    0.6000000238418579,
                    0.6000000238418579,
                    0.6000000238418579,
                    1.0
                ],
                "metallicFactor": 0.0
            }
        },
        {
            "name": "Fire.001",
            "pbrMetallicRoughness": {
                "baseColorFactor": [
                    0.6000000238418579,
                    0.6000000238418579,
                    0.6000000238418579,
                    1.0
                ],
                "metallicFactor": 0.0
            }
        }
    ],
    "meshes": [
        {
            "name": "bullet_Cube.005",
            "primitives": [
                {
                    "mode": 4,
                    "material": 1,
                    "indices": 3,
                    "attributes": {
                        "POSITION": 0,
                        "NORMAL": 1,
                        "TEXCOORD_0": 2
                    }
                }
            ]
        },
        {
            "name": "Cube.002_Cube.003",
            "primitives": [
                {
                    "mode": 4,
                    "material": 2,
                    "indices": 7,
                    "attributes": {
                        "POSITION": 4,
                        "NORMAL": 5,
                        "TEXCOORD_0": 6
                    }
                }
            ]
        },
        {
            "name": "hulle_Cube",
            "primitives": [
                {
                    "mode": 4,
                    "material": 3,
                    "indices": 10,
                    "attributes": {
                        "POSITION": 8,
                        "NORMAL": 9
                    }
                }
            ]
        },
        {
            "name": "Gun_Cube.001",
            "primitives": [
                {
                    "mode": 4,
                    "material": 4,
                    "indices": 14,
                    "attributes": {
                        "POSITION": 11,
                        "NORMAL": 12,
                        "TEXCOORD_0": 13
                    }
                }
            ]
        },
        {
            "name": "Cube.005_Cube.000",
            "primitives": [
                {
                    "mode": 1,
                    "material": 2,
                    "indices": 18,
                    "attributes": {
                        "POSITION": 15,
                        "NORMAL": 16,
                        "TEXCOORD_0": 17
                    }
                },
                {
                    "mode": 4,
                    "material": 2,
                    "indices": 22,
                    "attributes": {
                        "POSITION": 19,
                        "NORMAL": 20,
                        "TEXCOORD_0": 21
                    }
                }
            ]
        },
        {
            "name": "muzzle_fire_Plane.002",
            "primitives": [
                {
                    "mode": 4,
                    "material": 5,
                    "indices": 26,
                    "attributes": {
                        "POSITION": 23,
                        "NORMAL": 24,
                        "TEXCOORD_0": 25
                    }
                }
            ]
        },
        {
            "name": "Gun_trigger_Cube.002",
            "primitives": [
                {
                    "mode": 4,
                    "material": 2,
                    "indices": 30,
                    "attributes": {
                        "POSITION": 27,
                        "NORMAL": 28,
                        "TEXCOORD_0": 29
                    }
                }
            ]
        }
    ],
    "nodes": [
        {
            "name": "input.obj",
            "children": [
                1,
                2,
                3,
                4,
                5,
                6,
                7
            ]
        },
        {
            "name": "bullet_Cube.005",
            "mesh": 0
        },
        {
            "name": "Cube.002_Cube.003",
            "mesh": 1
        },
        {
            "name": "hulle_Cube",
            "mesh": 2
        },
        {
            "name": "Gun_Cube.001",
            "mesh": 3
        },
        {
            "name": "Cube.005_Cube.000",
            "mesh": 4
        },
        {
            "name": "muzzle_fire_Plane.002",
            "mesh": 5
        },
        {
            "name": "Gun_trigger_Cube.002",
            "mesh": 6
        }
    ],
    "scenes": [
        {
            "nodes": [
                0
            ]
        }
    ],
    "scene": 0
}